/vscmnt/brussel_pixiu_data/_data_brussel/112/vsc11236/PredSimResults/SUBJ11_Dhondt2024_3seg/weighted-LRposFixed/worker_01.mot
version=1
nRows=4
nColumns=124
inDegrees=yes
endheader
                time	         pelvis_tilt	         pelvis_list	     pelvis_rotation	           pelvis_tx	           pelvis_ty	           pelvis_tz	       hip_flexion_r	     hip_adduction_r	      hip_rotation_r	        knee_angle_r	       ankle_angle_r	    subtalar_angle_r	         mtp_angle_r	       hip_flexion_l	     hip_adduction_l	      hip_rotation_l	        knee_angle_l	       ankle_angle_l	    subtalar_angle_l	         mtp_angle_l	    lumbar_extension	      lumbar_bending	     lumbar_rotation	          arm_flex_r	           arm_add_r	           arm_rot_r	        elbow_flex_r	          arm_flex_l	           arm_add_l	           arm_rot_l	        elbow_flex_l	glut_med1_r/activation	glut_med2_r/activation	glut_med3_r/activation	glut_min1_r/activation	glut_min2_r/activation	glut_min3_r/activation	semimem_r/activation	semiten_r/activation	bifemlh_r/activation	bifemsh_r/activation	    sar_r/activation	add_long_r/activation	add_brev_r/activation	add_mag1_r/activation	add_mag2_r/activation	add_mag3_r/activation	    tfl_r/activation	   pect_r/activation	   grac_r/activation	glut_max1_r/activation	glut_max2_r/activation	glut_max3_r/activation	iliacus_r/activation	  psoas_r/activation	quad_fem_r/activation	    gem_r/activation	   peri_r/activation	rect_fem_r/activation	vas_med_r/activation	vas_int_r/activation	vas_lat_r/activation	med_gas_r/activation	lat_gas_r/activation	 soleus_r/activation	tib_post_r/activation	flex_dig_r/activation	flex_hal_r/activation	tib_ant_r/activation	per_brev_r/activation	per_long_r/activation	per_tert_r/activation	ext_dig_r/activation	ext_hal_r/activation	glut_med1_l/activation	glut_med2_l/activation	glut_med3_l/activation	glut_min1_l/activation	glut_min2_l/activation	glut_min3_l/activation	semimem_l/activation	semiten_l/activation	bifemlh_l/activation	bifemsh_l/activation	    sar_l/activation	add_long_l/activation	add_brev_l/activation	add_mag1_l/activation	add_mag2_l/activation	add_mag3_l/activation	    tfl_l/activation	   pect_l/activation	   grac_l/activation	glut_max1_l/activation	glut_max2_l/activation	glut_max3_l/activation	iliacus_l/activation	  psoas_l/activation	quad_fem_l/activation	    gem_l/activation	   peri_l/activation	rect_fem_l/activation	vas_med_l/activation	vas_int_l/activation	vas_lat_l/activation	med_gas_l/activation	lat_gas_l/activation	 soleus_l/activation	tib_post_l/activation	flex_dig_l/activation	flex_hal_l/activation	tib_ant_l/activation	per_brev_l/activation	per_long_l/activation	per_tert_l/activation	ext_dig_l/activation	ext_hal_l/activation	 ercspn_r/activation	 ercspn_l/activation	 intobl_r/activation	 intobl_l/activation	 extobl_r/activation	 extobl_l/activation	
          1.81727205	         -2.92962043	          0.86679319	         -2.46932400	          1.99899925	          0.92015805	          0.00246226	        -15.76344819	          0.93921630	          8.87591539	         -8.20078546	         10.37345180	          7.37529609	         14.41115602	         29.25078255	          2.36370676	          0.71379146	        -12.50678347	          5.85093933	         -2.47853052	          0.15788536	         -5.50028573	          0.49733262	          1.29374047	          8.27349375	        -13.47111651	         19.38072640	         50.76678247	        -12.68354921	        -13.45051383	         15.70947250	         26.33189039	          0.20974054	          0.12891927	          0.07215439	          0.27067360	          0.25837072	          0.18313475	          0.01125371	          0.01000119	          0.01000107	          0.05481703	          0.09308603	          0.01000019	          0.01000028	          0.01000047	          0.01000194	          0.01000179	          0.35478995	          0.01000087	          0.01000113	          0.01736482	          0.01200548	          0.01000387	          0.25173834	          0.41271446	          0.01000048	          0.01004468	          0.06226366	          0.24551312	          0.01000128	          0.01000130	          0.01000126	          0.37788887	          0.41435771	          0.33233090	          0.26675319	          0.30791497	          0.35488347	          0.01447656	          0.01000084	          0.03265383	          0.01201805	          0.01372663	          0.01535996	          0.01000357	          0.01001104	          0.01100128	          0.01000168	          0.01000187	          0.01000454	          0.10768109	          0.02003532	          0.03754825	          0.01574219	          0.01563176	          0.06857819	          0.10268525	          0.11650473	          0.10762034	          0.05780489	          0.01000154	          0.01297692	          0.04086806	          0.01202015	          0.01369672	          0.05623945	          0.02406390	          0.02174159	          0.05164257	          0.01000075	          0.01000039	          0.01000027	          0.02177118	          0.02189774	          0.01849400	          0.01000011	          0.01000031	          0.01000003	          0.01201920	          0.01201908	          0.01201859	          0.27774015	          0.13755249	          0.09577810	          0.10810970	          0.31453849	          0.04530162	          0.01000003	          0.01444600	          0.01000005	          0.03670580	          0.01000013	          0.08184331	
          1.82938720	         -2.93000765	          1.09200705	         -2.67516424	          2.01463775	          0.91972499	          0.00219381	        -15.87320382	          0.60260274	          8.64625734	         -9.65269882	          9.71635721	          8.03284495	         15.65247096	         28.57565661	          2.80033618	          0.81834081	        -11.79765046	          5.09763256	         -2.70028123	          0.18266868	         -5.38117408	          0.12667781	          1.37824182	          7.99013831	        -13.48696152	         19.37014841	         52.01699176	        -13.37985761	        -13.44973663	         15.50050883	         25.88037995	          0.17450617	          0.10726128	          0.06003271	          0.22520151	          0.21496547	          0.15236878	          0.01000309	          0.01000042	          0.01000032	          0.04560796	          0.07744855	          0.01000257	          0.01000068	          0.01000078	          0.01000233	          0.01000107	          0.29518829	          0.01009046	          0.01000796	          0.01445012	          0.01001912	          0.01000231	          0.22214085	          0.34848299	          0.01000389	          0.01003135	          0.05180361	          0.22079990	          0.01000075	          0.01000075	          0.01000062	          0.34485398	          0.37840636	          0.31004958	          0.25183289	          0.31146048	          0.34767085	          0.01204455	          0.01000100	          0.03398983	          0.01000023	          0.01142062	          0.01277958	          0.01201911	          0.01000295	          0.01000033	          0.01201922	          0.01201897	          0.01000364	          0.08959196	          0.01666964	          0.03124040	          0.01309764	          0.01300601	          0.06238086	          0.18964273	          0.09920105	          0.11036940	          0.04809452	          0.01000133	          0.02089852	          0.03400332	          0.01000124	          0.01139588	          0.05529303	          0.02002133	          0.01808916	          0.07613834	          0.14651038	          0.06187105	          0.01736193	          0.08631750	          0.08789633	          0.07332587	          0.01000034	          0.01000036	          0.01140984	          0.01000009	          0.01000042	          0.01000043	          0.34857362	          0.15457862	          0.09041938	          0.20131188	          0.35567655	          0.03769125	          0.01000011	          0.01201916	          0.01319427	          0.03053934	          0.01000027	          0.06809387	
          1.84150234	         -2.92713535	          1.32477927	         -2.86979142	          2.03058374	          0.91935736	          0.00191782	        -15.88969559	          0.26174172	          8.39398224	        -11.26679483	          8.89195270	          8.68681130	         16.96594218	         27.85498841	          3.20988098	          0.94771606	        -11.68388433	          4.05754629	         -2.89902484	          0.21254430	         -5.24417286	         -0.25688212	          1.45587737	          7.61513574	        -13.50577358	         19.34919680	         53.22031784	        -14.02634306	        -13.45542944	         15.46197219	         25.35681285	          0.14518967	          0.08924174	          0.04994743	          0.18736843	          0.17885201	          0.12677141	          0.01623261	          0.01201895	          0.01201927	          0.03794599	          0.06443768	          0.01202019	          0.01202043	          0.01202009	          0.01202046	          0.01201982	          0.24559772	          0.01670538	          0.01202020	          0.01202448	          0.01200989	          0.01201912	          0.18482188	          0.28993892	          0.01201921	          0.01201930	          0.04310119	          0.26097010	          0.01201995	          0.01202000	          0.01201994	          0.29800229	          0.32979176	          0.28211292	          0.23245002	          0.26066586	          0.31203210	          0.01002112	          0.01000039	          0.04788076	          0.01000023	          0.01000006	          0.01063274	          0.01000004	          0.01000021	          0.05069090	          0.01000019	          0.01000022	          0.01000039	          0.07454081	          0.03101015	          0.02599226	          0.01736378	          0.01444576	          0.05190144	          0.15778444	          0.17295102	          0.10477621	          0.04001498	          0.01000065	          0.01739221	          0.08653029	          0.01001129	          0.01789868	          0.04600417	          0.01665789	          0.01505034	          0.13972061	          0.12189713	          0.05147693	          0.01444526	          0.07181651	          0.07313010	          0.06100742	          0.01444610	          0.01444643	          0.01000003	          0.01517040	          0.01444904	          0.01445064	          0.29001448	          0.15851321	          0.10454621	          0.16749233	          0.32036017	          0.07964590	          0.01196271	          0.01000002	          0.01444656	          0.02540883	          0.01444624	          0.05665430	
          1.85361749	         -2.92232460	          1.57532202	         -3.05053138	          2.04672204	          0.91909112	          0.00165464	        -15.80574366	         -0.09126822	          8.11234276	        -13.02790054	          7.86912537	          9.31679677	         18.33717553	         27.12025620	          3.57169844	          1.11740545	        -11.96419375	          2.75177637	         -3.08877828	          0.20238250	         -5.09828703	         -0.66621183	          1.52515665	          7.16530914	        -13.52043265	         19.31828235	         54.36429561	        -14.59728871	        -13.47496148	         15.62107033	         24.75070864	          0.20086861	          0.07424944	          0.04155643	          0.27078603	          0.14880624	          0.10547429	          0.01356516	          0.01000044	          0.01000035	          0.03157121	          0.05361284	          0.01000102	          0.01000124	          0.01000098	          0.01000188	          0.01000115	          0.21997801	          0.01390057	          0.01000168	          0.01000620	          0.01000102	          0.01000094	          0.15378089	          0.28356126	          0.01000018	          0.01000080	          0.03586036	          0.21712807	          0.01000086	          0.01000090	          0.01000078	          0.24793874	          0.27438775	          0.23471874	          0.20285173	          0.21687523	          0.25961204	          0.01000005	          0.01103690	          0.06640574	          0.01000032	          0.01000011	          0.01000030	          0.20836468	          0.21287570	          0.27069179	          0.12301688	          0.02785043	          0.11273923	          0.06201823	          0.03507085	          0.04543849	          0.01444693	          0.01201971	          0.04318230	          0.13127731	          0.14389597	          0.08717463	          0.07927654	          0.01000212	          0.01447302	          0.07199384	          0.01000125	          0.01489246	          0.04398062	          0.01385948	          0.01252199	          0.11624817	          0.10141905	          0.07914326	          0.01201863	          0.08937076	          0.09797246	          0.07231022	          0.01201923	          0.01201952	          0.01201910	          0.01262185	          0.01202183	          0.01202315	          0.43070681	          0.17416824	          0.08698471	          0.41129693	          0.41797300	          0.19148406	          0.01672027	          0.02894010	          0.01201959	          0.02114040	          0.01201936	          0.04713655	
